<svg width="204" height="98" viewBox="0 0 204 98" fill="none" xmlns="http://www.w3.org/2000/svg">
<path fill-rule="evenodd" clip-rule="evenodd" d="M154.937 46.4898C150.179 45.027 146.525 43.6502 146.525 40.2944C146.525 38.4875 147.375 36.9386 148.734 35.9061C150.179 34.9595 152.133 34.3572 154.342 34.3572C158.165 34.2712 162.159 35.9921 162.244 40.5526V40.8107H165.813V40.5526C165.728 34.7875 161.309 31.0014 154.342 31.0014C147.46 30.9154 142.956 34.7875 142.956 40.5526C142.871 46.2316 147.63 48.1247 153.747 50.1037L153.917 50.1898C158.675 51.7386 162.754 53.1154 162.754 57.1595C162.669 59.3107 162.074 60.8595 160.714 62.0642C159.27 63.3549 157.061 63.9572 154.172 63.9572C147.969 63.8712 145.675 60.2572 145.59 57.2456V56.9014H142.022V57.1595C142.107 62.0642 145.93 67.3991 154.172 67.3991C161.819 67.3991 166.152 63.613 166.237 57.1595C166.322 50.7061 160.884 48.2968 154.937 46.4898ZM100.643 66.7968H96.904V31.4316H100.643V66.7968ZM91.3811 31.5177H70.3092C70.3092 31.5177 70.3092 66.7968 70.3942 66.7968H74.1328V50.9642H87.0478V47.5223H74.1328L74.0478 34.8735L91.3811 34.9595V31.5177ZM60.7079 42.8758C60.7929 37.1107 58.1589 33.4968 53.9955 31.9479C52.5511 31.4316 50.9367 31.0875 49.0674 31.0875H48.8125C46.9432 31.0875 45.2439 31.3456 43.7145 32.034C39.636 33.5828 37.0021 37.1107 37.0021 42.8758V55.6968C36.9171 61.3758 39.4661 64.9898 43.6295 66.5386C44.989 67.0549 46.6883 67.4851 48.5576 67.3991H48.8975C50.7668 67.4851 52.4661 67.1409 53.9106 66.5386C57.989 64.9898 60.623 61.3758 60.7079 55.6968V42.8758ZM55.8648 51.3944C55.8648 49.0712 53.9955 47.1782 51.7014 47.1782H50.9367V42.1875H46.7733V47.1782H41.8452C41.8452 49.5014 43.7145 51.3944 46.0086 51.3944H46.7733V56.3851H50.9367V51.3944H55.8648ZM130.466 52.0828H124.094V48.8991H134.205V56.213C134.205 63.613 129.192 67.3991 122.309 67.3991H122.224H122.139C114.662 67.3991 110.159 62.9247 110.244 55.5247V42.7898C110.244 35.3898 114.747 30.9154 122.224 31.0014H122.309H122.394C129.022 31.0014 133.27 34.6154 134.12 40.8107L134.205 41.1549H130.466L130.381 40.8968C129.786 37.0247 127.152 34.7014 122.989 34.4433C122.989 34.4433 122.479 34.3572 122.224 34.3572C116.956 34.3572 113.897 37.4549 113.813 42.7898V55.4386C113.813 60.7735 116.786 63.7851 122.139 63.8712H122.649H122.904C127.152 63.613 129.786 61.2898 130.381 57.2456V57.0735C130.466 57.0735 130.466 56.9875 130.466 56.9875V52.0828Z" fill="white"/>
</svg>
