<svg width="204" height="98" viewBox="0 0 204 98" fill="none" xmlns="http://www.w3.org/2000/svg">
<path d="M74.5297 43.5747C69.6756 43.5747 66.7014 46.7527 66.7014 52.3382C66.7014 57.9237 69.6756 61.0775 74.5297 61.0775C79.3837 61.0775 82.3342 57.8996 82.3342 52.3382C82.3342 46.7767 79.4313 43.5747 74.5297 43.5747ZM74.5297 58.5255C71.4602 58.5255 70.2229 55.9735 70.2229 52.3622C70.2467 48.7028 71.4602 46.1748 74.5297 46.1748C77.5991 46.1748 78.8364 48.7028 78.8364 52.3382C78.8364 55.9735 77.5991 58.5255 74.5297 58.5255Z" fill="white"/>
<path d="M119.001 43.5747C116.598 43.5747 115.194 44.6822 114.147 46.1026C114.004 46.2711 113.885 46.4397 113.648 46.4397C113.41 46.4397 113.219 46.2711 113.219 45.9341V43.9117H110.078V60.7646H113.41V51.4714C113.41 48.462 115.004 46.3193 117.502 46.3193C119.858 46.3193 121.024 47.6916 121.024 50.6769V60.7646H124.355V49.7862C124.355 45.91 122.618 43.5747 119.001 43.5747Z" fill="white"/>
<path d="M136.799 43.5747C134.563 43.5747 133.111 44.5859 132.136 45.8619C131.993 46.0304 131.874 46.1989 131.636 46.1989C131.398 46.1989 131.208 46.0304 131.208 45.6933V36.641H127.876V60.7646H131.208V51.4714C131.208 48.462 132.802 46.3193 135.3 46.3193C137.656 46.3193 138.822 47.6916 138.822 50.6769V60.7646H142.153V49.7862C142.153 45.91 140.416 43.5747 136.799 43.5747Z" fill="white"/>
<path d="M152.551 43.5747C147.697 43.5747 144.723 46.7527 144.723 52.3382C144.723 57.9237 147.697 61.0775 152.551 61.0775C157.405 61.0775 160.356 57.8996 160.356 52.3382C160.332 46.7527 157.453 43.5747 152.551 43.5747ZM152.551 58.5255C149.482 58.5255 148.244 55.9735 148.244 52.3622C148.244 48.7509 149.482 46.1989 152.551 46.1989C155.621 46.1989 156.858 48.7268 156.858 52.3622C156.834 55.9495 155.621 58.5255 152.551 58.5255Z" fill="white"/>
<path d="M170.016 43.5747C165.162 43.5747 162.188 46.7527 162.188 52.3382C162.188 57.9237 165.162 61.0775 170.016 61.0775C174.87 61.0775 177.821 57.8996 177.821 52.3382C177.821 46.7767 174.918 43.5747 170.016 43.5747ZM170.016 58.5255C166.947 58.5255 165.709 55.9735 165.709 52.3622C165.709 48.7509 166.947 46.1989 170.016 46.1989C173.086 46.1989 174.323 48.7268 174.323 52.3622C174.323 55.9976 173.086 58.5255 170.016 58.5255Z" fill="white"/>
<path d="M106.462 43.9118H103.13V60.7646H106.462V43.9118Z" fill="white"/>
<path d="M106.557 36.641H102.988V40.493H106.557V36.641Z" fill="white"/>
<path d="M191.669 36.641V45.26C191.669 45.597 191.479 45.7656 191.241 45.7656C191.074 45.7656 190.836 45.597 190.741 45.5007C189.551 44.2247 188.266 43.5747 186.244 43.5747C182.651 43.5747 179.724 46.3674 179.724 52.3382C179.724 58.3089 182.651 61.0775 186.244 61.0775C188.338 61.0775 189.646 60.259 190.908 58.983C191.098 58.7904 191.241 58.67 191.407 58.67C191.645 58.67 191.836 58.8385 191.836 59.1756V60.7646H195V36.641H191.669ZM187.505 58.5015C184.436 58.5255 183.198 55.9495 183.198 52.3382C183.198 48.7268 184.436 46.1748 187.505 46.1748C190.574 46.1748 191.812 48.7028 191.812 52.3382C191.812 55.9735 190.622 58.5015 187.505 58.5015Z" fill="white"/>
<path d="M93.8507 43.5747C91.8281 43.5747 90.5433 44.2247 89.3535 45.5007C89.2584 45.597 89.0204 45.7656 88.8539 45.7656C88.6159 45.7656 88.4256 45.597 88.4256 45.26V36.641H85.0944V60.7646H88.2352V59.1756C88.2352 58.8385 88.4256 58.67 88.6635 58.67C88.8301 58.67 88.9728 58.7663 89.1632 58.983C90.4243 60.259 91.733 61.0775 93.8269 61.0775C97.4198 61.0775 100.37 58.3089 100.37 52.3382C100.37 46.3674 97.4436 43.5747 93.8507 43.5747ZM92.5658 58.5255C89.4725 58.5255 88.259 55.9735 88.259 52.3622C88.259 48.7509 89.4487 46.1989 92.5658 46.1989C95.6828 46.1989 96.8725 48.7268 96.8725 52.3622C96.8725 55.9495 95.6352 58.5255 92.5658 58.5255Z" fill="white"/>
<path d="M61.4666 50.0269C61.2049 49.9306 61.1097 49.7621 61.1097 49.5454C61.1097 49.3046 61.2049 49.2083 61.5142 49.0398C63.3226 48.1731 64.4171 46.4397 64.4171 44.0803C64.4171 39.9393 61.8473 37.4355 56.684 37.4355H47.7849V60.7646H51.3065V51.1344H56.9933C59.682 51.1344 60.5862 52.29 60.6576 54.1679L60.9907 60.7646H64.4647L64.1078 53.9271C63.965 51.664 63.0846 50.6288 61.4666 50.0269ZM56.446 48.3657H51.3065V40.2764H56.446C59.111 40.2764 60.7528 41.6005 60.7528 44.321C60.7528 47.0416 59.111 48.3657 56.446 48.3657Z" fill="white"/>
<path d="M26.5985 39.1207H19.365C19.1033 39.1207 18.882 39.2267 18.6987 39.4578L13.5116 45.9582C12.7502 46.9212 12.5598 47.812 12.5598 49.088V55.7328C10.8704 60.5238 9.79968 63.774 9.01447 66.7112C8.96688 66.899 9.03827 67.0001 9.20483 67.0001H9.99004C10.1328 67.0001 10.2756 66.9279 10.3232 66.8075C16.2479 51.5437 22.6962 43.984 26.7412 39.4578C26.9078 39.2652 26.8364 39.1207 26.5985 39.1207Z" fill="white"/>
<path d="M26.8126 31.6333C26.3272 31.8235 25.8608 32.1461 25.6467 32.3315C23.5052 34.1853 22.0775 35.6539 20.7213 37.0984C20.5547 37.2669 20.6261 37.4355 20.864 37.4355H28.8827C29.6203 37.4355 30.0486 37.8688 30.0486 38.6152V47.7638C30.0486 48.0046 30.239 48.0768 30.3818 47.8601L35.212 41.4801C35.9972 40.4449 36.2351 40.1319 36.4493 38.6874C36.7348 36.5687 36.5683 33.3186 35.3072 31.9703C34.1888 30.7666 29.1444 30.7184 26.8126 31.6333Z" fill="white"/>
<path d="M28.0261 40.9505C23.0531 46.56 19.1746 52.4585 15.5817 59.5608C15.4913 59.7389 15.6055 59.8978 15.8196 59.8256L23.2435 57.5144C24.081 57.2544 24.5521 56.9125 24.9566 56.2384L28.2641 50.7251C28.3354 50.5806 28.3592 50.4121 28.3592 50.2917V41.0949C28.3592 40.8542 28.1927 40.7579 28.0261 40.9505Z" fill="white"/>
</svg>
